<?xml version="1.0" encoding="UTF-8" standalone="no"?>
<!DOCTYPE svg PUBLIC "-//W3C//DTD SVG 1.1//EN" "http://www.w3.org/Graphics/SVG/1.1/DTD/svg11.dtd">
<svg width="100%" height="100%" viewBox="0 0 24 24" version="1.1" xmlns="http://www.w3.org/2000/svg" xmlns:xlink="http://www.w3.org/1999/xlink" xml:space="preserve" xmlns:serif="http://www.serif.com/" style="fill-rule:evenodd;clip-rule:evenodd;stroke-linejoin:round;stroke-miterlimit:2;">
    <g transform="matrix(1.2003,0,0,1.2003,-2.4066,-2.4006)">
        <path d="M12.002,2C17.52,2 22,6.48 22,11.998C22,17.515 17.52,21.995 12.002,21.995C6.485,21.995 2.005,17.515 2.005,11.998C2.005,6.48 6.485,2 12.002,2ZM12.002,3.5C7.312,3.5 3.505,7.308 3.505,11.998C3.505,16.688 7.312,20.495 12.002,20.495C16.692,20.495 20.5,16.688 20.5,11.998C20.5,7.308 16.692,3.5 12.002,3.5ZM11.255,11.25L7.755,11.25C7.341,11.25 7.005,11.586 7.005,12C7.005,12.414 7.341,12.75 7.755,12.75L11.255,12.75L11.255,16.25C11.255,16.664 11.591,17 12.005,17C12.419,17 12.755,16.664 12.755,16.25L12.755,12.75L16.255,12.75C16.669,12.75 17.005,12.414 17.005,12C17.005,11.586 16.669,11.25 16.255,11.25L12.755,11.25L12.755,7.75C12.755,7.336 12.419,7 12.005,7C11.591,7 11.255,7.336 11.255,7.75L11.255,11.25Z" style="fill:rgb(243,239,224);fill-rule:nonzero;"/>
    </g>
</svg>
