<?xml version="1.0" encoding="UTF-8" standalone="no"?>
<!DOCTYPE svg PUBLIC "-//W3C//DTD SVG 1.1//EN" "http://www.w3.org/Graphics/SVG/1.1/DTD/svg11.dtd">
<svg width="100%" height="100%" viewBox="0 0 24 24" version="1.1" xmlns="http://www.w3.org/2000/svg" xmlns:xlink="http://www.w3.org/1999/xlink" xml:space="preserve" xmlns:serif="http://www.serif.com/" style="fill-rule:evenodd;clip-rule:evenodd;stroke-linejoin:round;stroke-miterlimit:2;">
    <path d="M12,2C17.514,2 22,6.486 22,12C22,17.514 17.514,22 12,22C6.486,22 2,17.514 2,12C2,6.486 6.486,2 12,2ZM12,0C5.373,0 0,5.373 0,12C0,18.627 5.373,24 12,24C18.627,24 24,18.627 24,12C24,5.373 18.627,0 12,0ZM10.734,16.293C10.35,16.685 9.723,16.694 9.327,16.315C8.49,15.511 7.11,14.186 6.267,13.378C6.075,13.193 5.964,12.94 5.96,12.674C5.955,12.407 6.057,12.15 6.243,11.959C6.244,11.958 6.245,11.957 6.246,11.956C6.628,11.563 7.256,11.551 7.653,11.929C8.563,12.797 10.016,14.183 10.016,14.183C10.016,14.183 14.554,9.54 16.333,7.72C16.519,7.53 16.774,7.421 17.04,7.419C17.307,7.417 17.563,7.521 17.752,7.709C17.752,7.709 17.752,7.709 17.753,7.709C18.143,8.096 18.148,8.726 17.763,9.119C16.178,10.737 12.315,14.679 10.734,16.293Z" style="fill:rgb(243,239,224);fill-rule:nonzero;"/>
</svg>
